<mxfile host="app.diagrams.net" agent="Mozilla/5.0 (Windows NT 10.0; Win64; x64) AppleWebKit/537.36 (KHTML, like Gecko) Chrome/136.0.0.0 Safari/537.36" version="27.0.9">
  <diagram name="Page-1" id="e7e014a7-5840-1c2e-5031-d8a46d1fe8dd">
    <mxGraphModel dx="1426" dy="711" grid="1" gridSize="10" guides="1" tooltips="1" connect="1" arrows="1" fold="1" page="1" pageScale="1" pageWidth="1169" pageHeight="826" background="none" math="0" shadow="0">
      <root>
        <mxCell id="0" />
        <mxCell id="1" parent="0" />
        <mxCell id="2" value="Customer" style="swimlane;whiteSpace=wrap" parent="1" vertex="1">
          <mxGeometry x="100" y="128" width="344.5" height="782" as="geometry" />
        </mxCell>
        <mxCell id="-Ku692GFIw_B7qga-q3F-63" value="" style="edgeStyle=orthogonalEdgeStyle;rounded=0;orthogonalLoop=1;jettySize=auto;html=1;" edge="1" parent="2" source="5" target="-Ku692GFIw_B7qga-q3F-42">
          <mxGeometry relative="1" as="geometry" />
        </mxCell>
        <mxCell id="5" value="" style="ellipse;shape=startState;fillColor=#000000;strokeColor=#ff0000;" parent="2" vertex="1">
          <mxGeometry x="130" y="40" width="30" height="30" as="geometry" />
        </mxCell>
        <mxCell id="-Ku692GFIw_B7qga-q3F-42" value="Vào xem thông tin đơn đặt thuê" style="rounded=1;whiteSpace=wrap;html=1;" vertex="1" parent="2">
          <mxGeometry x="75.01" y="102" width="140" height="48" as="geometry" />
        </mxCell>
        <mxCell id="38" value="" style="ellipse;shape=endState;fillColor=#000000;strokeColor=#ff0000" parent="2" vertex="1">
          <mxGeometry x="135.01" y="722" width="30" height="30" as="geometry" />
        </mxCell>
        <mxCell id="-Ku692GFIw_B7qga-q3F-55" value="Khách hàng click và điền thông tin ngày gia hạn đơn đặt" style="rounded=1;whiteSpace=wrap;html=1;" vertex="1" parent="2">
          <mxGeometry x="80.01" y="285" width="140" height="48" as="geometry" />
        </mxCell>
        <mxCell id="-Ku692GFIw_B7qga-q3F-74" style="edgeStyle=orthogonalEdgeStyle;rounded=0;orthogonalLoop=1;jettySize=auto;html=1;entryX=0;entryY=0.5;entryDx=0;entryDy=0;" edge="1" parent="2" source="-Ku692GFIw_B7qga-q3F-59" target="38">
          <mxGeometry relative="1" as="geometry">
            <Array as="points">
              <mxPoint x="60" y="526" />
              <mxPoint x="60" y="737" />
            </Array>
          </mxGeometry>
        </mxCell>
        <mxCell id="-Ku692GFIw_B7qga-q3F-59" value="Hiển thị thông báo liên quan đến lỗi" style="rounded=1;whiteSpace=wrap;html=1;" vertex="1" parent="2">
          <mxGeometry x="88.88" y="502" width="112.25" height="48" as="geometry" />
        </mxCell>
        <mxCell id="-Ku692GFIw_B7qga-q3F-75" value="" style="edgeStyle=orthogonalEdgeStyle;rounded=0;orthogonalLoop=1;jettySize=auto;html=1;" edge="1" parent="2" source="-Ku692GFIw_B7qga-q3F-62" target="38">
          <mxGeometry relative="1" as="geometry" />
        </mxCell>
        <mxCell id="-Ku692GFIw_B7qga-q3F-62" value="Hiển thị thông báo gia hạn thành công" style="rounded=1;whiteSpace=wrap;html=1;" vertex="1" parent="2">
          <mxGeometry x="93.88" y="632" width="112.25" height="48" as="geometry" />
        </mxCell>
        <mxCell id="3" value="Hệ thống" style="swimlane;whiteSpace=wrap" parent="1" vertex="1">
          <mxGeometry x="444.5" y="128" width="315.5" height="782" as="geometry" />
        </mxCell>
        <mxCell id="-Ku692GFIw_B7qga-q3F-52" value="" style="edgeStyle=orthogonalEdgeStyle;rounded=0;orthogonalLoop=1;jettySize=auto;html=1;" edge="1" parent="3" source="-Ku692GFIw_B7qga-q3F-44" target="-Ku692GFIw_B7qga-q3F-51">
          <mxGeometry relative="1" as="geometry" />
        </mxCell>
        <mxCell id="-Ku692GFIw_B7qga-q3F-44" value="Kiểm tra xem trạng thái đơn đặt có phải là đang thuê không" style="rounded=1;whiteSpace=wrap;html=1;" vertex="1" parent="3">
          <mxGeometry x="85.5" y="102" width="140" height="48" as="geometry" />
        </mxCell>
        <mxCell id="-Ku692GFIw_B7qga-q3F-45" value="Hiển thị button cho gia hạn" style="rounded=1;whiteSpace=wrap;html=1;" vertex="1" parent="3">
          <mxGeometry x="85.5" y="285" width="140" height="48" as="geometry" />
        </mxCell>
        <mxCell id="-Ku692GFIw_B7qga-q3F-66" value="Có" style="edgeStyle=orthogonalEdgeStyle;rounded=0;orthogonalLoop=1;jettySize=auto;html=1;" edge="1" parent="3" source="-Ku692GFIw_B7qga-q3F-51" target="-Ku692GFIw_B7qga-q3F-45">
          <mxGeometry relative="1" as="geometry" />
        </mxCell>
        <mxCell id="-Ku692GFIw_B7qga-q3F-51" value="" style="rhombus;whiteSpace=wrap;html=1;" vertex="1" parent="3">
          <mxGeometry x="121" y="192" width="69" height="56" as="geometry" />
        </mxCell>
        <mxCell id="-Ku692GFIw_B7qga-q3F-69" value="" style="edgeStyle=orthogonalEdgeStyle;rounded=0;orthogonalLoop=1;jettySize=auto;html=1;" edge="1" parent="3" source="-Ku692GFIw_B7qga-q3F-56" target="-Ku692GFIw_B7qga-q3F-58">
          <mxGeometry relative="1" as="geometry" />
        </mxCell>
        <mxCell id="-Ku692GFIw_B7qga-q3F-56" value="Hệ thống kiểm tra xem xe đang thuê vào khoảng thời gian gia hạn có bị trùng với đơn đặt khác không và có phải gia hạn lần đầu không" style="rounded=1;whiteSpace=wrap;html=1;" vertex="1" parent="3">
          <mxGeometry x="76.62" y="382" width="173.38" height="78" as="geometry" />
        </mxCell>
        <mxCell id="-Ku692GFIw_B7qga-q3F-70" value="Đủ điều kiện" style="edgeStyle=orthogonalEdgeStyle;rounded=0;orthogonalLoop=1;jettySize=auto;html=1;" edge="1" parent="3" source="-Ku692GFIw_B7qga-q3F-58" target="-Ku692GFIw_B7qga-q3F-61">
          <mxGeometry relative="1" as="geometry" />
        </mxCell>
        <mxCell id="-Ku692GFIw_B7qga-q3F-58" value="" style="rhombus;whiteSpace=wrap;html=1;" vertex="1" parent="3">
          <mxGeometry x="127.17999999999999" y="492" width="72.25" height="68" as="geometry" />
        </mxCell>
        <mxCell id="-Ku692GFIw_B7qga-q3F-61" value="Lưu thông tin mới của đơn đạt về&amp;nbsp; thời gian và giá tiền" style="rounded=1;whiteSpace=wrap;html=1;" vertex="1" parent="3">
          <mxGeometry x="107.18" y="602" width="112.25" height="48" as="geometry" />
        </mxCell>
        <mxCell id="-Ku692GFIw_B7qga-q3F-76" value="Không đủ điều kiện" style="text;html=1;align=center;verticalAlign=middle;resizable=0;points=[];autosize=1;strokeColor=none;fillColor=none;" vertex="1" parent="3">
          <mxGeometry x="-2.819999999999993" y="492" width="130" height="30" as="geometry" />
        </mxCell>
        <mxCell id="-Ku692GFIw_B7qga-q3F-64" style="edgeStyle=orthogonalEdgeStyle;rounded=0;orthogonalLoop=1;jettySize=auto;html=1;entryX=0;entryY=0.5;entryDx=0;entryDy=0;" edge="1" parent="1" source="-Ku692GFIw_B7qga-q3F-42" target="-Ku692GFIw_B7qga-q3F-44">
          <mxGeometry relative="1" as="geometry" />
        </mxCell>
        <mxCell id="-Ku692GFIw_B7qga-q3F-65" value="Không" style="edgeStyle=orthogonalEdgeStyle;rounded=0;orthogonalLoop=1;jettySize=auto;html=1;entryX=1;entryY=0.5;entryDx=0;entryDy=0;" edge="1" parent="1" source="-Ku692GFIw_B7qga-q3F-51" target="38">
          <mxGeometry relative="1" as="geometry">
            <Array as="points">
              <mxPoint x="730" y="348" />
              <mxPoint x="730" y="865" />
            </Array>
          </mxGeometry>
        </mxCell>
        <mxCell id="-Ku692GFIw_B7qga-q3F-67" style="edgeStyle=orthogonalEdgeStyle;rounded=0;orthogonalLoop=1;jettySize=auto;html=1;entryX=1;entryY=0.5;entryDx=0;entryDy=0;" edge="1" parent="1" source="-Ku692GFIw_B7qga-q3F-45" target="-Ku692GFIw_B7qga-q3F-55">
          <mxGeometry relative="1" as="geometry" />
        </mxCell>
        <mxCell id="-Ku692GFIw_B7qga-q3F-68" style="edgeStyle=orthogonalEdgeStyle;rounded=0;orthogonalLoop=1;jettySize=auto;html=1;entryX=0;entryY=0.5;entryDx=0;entryDy=0;" edge="1" parent="1" source="-Ku692GFIw_B7qga-q3F-55" target="-Ku692GFIw_B7qga-q3F-56">
          <mxGeometry relative="1" as="geometry">
            <Array as="points">
              <mxPoint x="250" y="550" />
              <mxPoint x="421" y="550" />
              <mxPoint x="421" y="549" />
            </Array>
          </mxGeometry>
        </mxCell>
        <mxCell id="-Ku692GFIw_B7qga-q3F-71" style="edgeStyle=orthogonalEdgeStyle;rounded=0;orthogonalLoop=1;jettySize=auto;html=1;entryX=1;entryY=0.5;entryDx=0;entryDy=0;" edge="1" parent="1" source="-Ku692GFIw_B7qga-q3F-58" target="-Ku692GFIw_B7qga-q3F-59">
          <mxGeometry relative="1" as="geometry" />
        </mxCell>
        <mxCell id="-Ku692GFIw_B7qga-q3F-73" style="edgeStyle=orthogonalEdgeStyle;rounded=0;orthogonalLoop=1;jettySize=auto;html=1;entryX=1;entryY=0.5;entryDx=0;entryDy=0;" edge="1" parent="1" source="-Ku692GFIw_B7qga-q3F-61" target="-Ku692GFIw_B7qga-q3F-62">
          <mxGeometry relative="1" as="geometry">
            <Array as="points">
              <mxPoint x="608" y="784" />
            </Array>
          </mxGeometry>
        </mxCell>
      </root>
    </mxGraphModel>
  </diagram>
</mxfile>
